#!OML:ASF F:\VICON\USERDATA\INSTALL\rory3\rory3.ASF
:FULLY-SPECIFIED
:DEGREES
18
root 0.8532006480726696 17.721802772318505 -15.393889055456011 0.6113400075123421 -7.2197125706931775 -8.965480143491552
lfemur -25.773692614385503 -5.691878675694681 -7.084759777245965
ltibia 12.623811740526218
lfoot -6.506937233027283 13.109876544341361
ltoes -0.4674952235707588
rfemur 11.399385492099059 8.3701773118323 35.48568707243485
rtibia 23.550309313884604
rfoot -17.988289093344875 -5.057513452718621
rtoes -6.620400934783472
lowerback 8.691003097879472 2.9330239827422844 9.205019548295214
upperback -0.29611949339038834 4.959953467631981 2.346412540809688
thorax -4.627072198514201 2.252443017034388 -3.2853737551746467
lowerneck -16.812704234562716 -2.84261542950505 -1.2787724152361162
upperneck 21.771091795632984 -3.68213502240683 0.257254614567753
head 9.702821685617254 -1.7836844112388488 -0.1831653277226939
lclavicle -9.152775297015075e-16 -7.746724830317487e-16
lhumerus -38.73860028643885 6.9987591500883575 81.50190738654723
lradius 21.81500931713788
lwrist 2.1818802551305794
lhand -26.959003094961908 19.654494168484693
lfingers 7.125020000000057
lthumb -0.3804530950148345 49.63389414512109
rclavicle -9.152775297015075e-16 -7.746724830317487e-16
rhumerus -21.92351193137391 -8.06254913772279 -82.99510278366309
rradius 29.72510770871674
rwrist 1.1132254815458769
rhand -18.355897913608295 25.0619051912272
rfingers 7.125020000000057
rthumb 7.926842084964683 -4.7694547841854975
19
root 0.9375114036764771 17.81860051904406 -14.527989430608624 0.02202707703496129 -7.234752530395324 -7.496884375523031
lfemur -24.74609318396242 -3.7194537201925826 -10.409514791141746
ltibia 15.301310682825015
lfoot 0.23017192286695076 5.892655758461191
ltoes -1.708385911241849
rfemur 12.902184664137208 7.80105866012067 33.32959039683866
rtibia 26.202908322513522
rfoot -14.400791596341389 -2.7755378422787684
rtoes -10.656987245298607
lowerback 8.540243628135723 2.913824110923123 7.867062965041934
upperback -0.202097630357355 4.766204274112296 2.1079347075039707
thorax -4.547452587321441 2.1937235742275525 -2.767045833109522
lowerneck -16.949603588391113 -2.8543553264262433 -1.4385598455800408
upperneck 22.056091254863674 -3.615015412867148 0.0913978878270385
head 9.828910830641808 -1.7837444104066542 -0.21042587670977675
lclavicle -9.152775577828692e-16 -7.746725873017373e-16
lhumerus -39.1725999816643 8.868087048860259 80.74980841395457
lradius 20.294109676707173
lwrist 1.1092110083685593
lhand -27.20780231710831 18.485995244478083
lfingers 7.125020000000057
lthumb -0.6207743169423917 48.4647952215013
rclavicle -9.152775577828692e-16 -7.746725873017373e-16
rhumerus -22.88961119700857 -9.356948363879242 -82.56980317765117
rradius 29.25010782278816
rwrist 1.544165123292074
rhand -19.790689624013407 23.01650748900491
rfingers 7.125020000000057
rthumb 6.541900376097644 -6.862462432136888
20
root 0.9908776160105293 17.91849819360897 -13.649489811220299 -1.0373163218468302 -5.646656785514567 -4.494633027067871
lfemur -22.27719455242144 -3.7424836612932593 -14.944307990354503
ltibia 16.29021029217682
lfoot 3.03202590828225 0.12930111645146614
ltoes -3.0354245078054936
rfemur 11.890785221364096 6.226152391201651 29.764295894031218
rtibia 32.99190578522263
rfoot -7.955996092874308 -1.7821097532160808
rtoes -9.70340811688059
lowerback 8.386504168873298 2.6323159903078874 4.809440773307649
upperback -0.3102033230805412 4.050037255154948 1.3735413798466456
thorax -4.793901383835559 1.89811637926621 -1.7586798755673825
lowerneck -16.25200688108148 -3.0291037920973256 -1.4555195728385244
upperneck 22.235290914843116 -3.89499378412639 0.19302295275659498
head 9.76652125368819 -1.9058527167498487 -0.19979805254211236
lclavicle -9.152774954211318e-16 -7.746725172918664e-16
lhumerus -39.319899878223524 10.017585756760031 79.69280985787103
lradius 18.120410190610848
lwrist -0.6389357640669289
lhand -27.039502843285 18.007495685096714
lfingers 7.125020000000057
lthumb -0.45825784311144513 47.98679566159174
rclavicle -9.152774954211318e-16 -7.746725172918664e-16
rhumerus -24.533709947272445 -12.34229657911887 -81.76360392449622
rradius 27.669708202321566
rwrist 2.5871042562636957
rhand -20.067988021905332 22.674007873765294
rfingers 7.125020000000057
rthumb 6.274171978888376 -7.213112038089153
21
root 0.5473595451456602 17.736109835054904 14.521553172987744 -2.104971184300866 -3.146395505678548 -3.7106532073624727
lfemur -20.081513080217107 -2.9549181671649105 -17.17351849593763
ltibia 26.570039473168578
lfoot -5.882570228995062 -1.1626672922353736
ltoes -5.1198981185181704
rfemur 0.4470678424973489 3.722760825827999 28.222260338788864
rtibia 51.955715072794646
rfoot 3.0718393728657385 -3.489264219080534
rtoes 7.9079540867628495
lowerback 10.374384870871001 1.9555866657166328 3.367224049253511
upperback -0.04081116067881482 3.072989216785685 1.246625148314784
thorax -5.678816760228554 1.4242988599496849 -1.0817895733944232
lowerneck -16.6505136791386 -3.4282887718375004 -1.6467251000623009
upperneck 20.596192654952606 -4.494291854846089 0.928678284944669
head 9.321379933239788 -2.1432973400291035 0.011651781106503556
lclavicle -9.402459141219373e-16 -7.934096169692066e-16
lhumerus -39.14149467913166 7.399545957549499 81.01506888051293
lradius 27.005368766798824
lwrist 3.9259045811243833
lhand -29.14513472686021 19.316548762478114
lfingers 7.125020000000057
lthumb -2.491308505655595 49.29317452848609
rclavicle -9.402459141219373e-16 -7.934096169692068e-16
rhumerus -25.773433586994784 -13.384134420674513 -81.06761237779062
rradius 36.31398940120475
rwrist 0.3289686185130032
rhand -17.294667619136867 30.72891720553397
rfingers 7.125020000000057
rthumb 8.951830428707078 -6.681249938600764
22
root 0.553905720588481 17.909187514833818 16.983193473302755 -3.120387354354103 -4.238955136558079 -3.806120361056835
lfemur -18.49643896008633 -3.316938550707091 -17.335737611052163
ltibia 26.34331558474326
lfoot -1.5700791012122657 -2.442600328766746
ltoes -4.7474838083036115
rfemur -0.5103578500813306 2.820259093786469 28.40637794783628
rtibia 61.386461577465056
rfoot 7.118507369275932 -1.9836293080905945
rtoes 11.697556685916764
lowerback 9.97348978364031 1.9497378445639915 3.6229876366271387
upperback -0.025775416291536513 3.116746108338413 1.3053610512147469
thorax -5.503165397923416 1.4473326332152394 -1.055674161620464
lowerneck -16.211430952904678 -3.086766667395673 -1.5343234815374445
upperneck 21.71486459232259 -4.021623349713097 0.5742186392814081
head 9.58631111142564 -1.9425449870217892 -0.08589188074447296
lclavicle -8.381075490862638e-16 -7.146561984180886e-16
lhumerus -38.713466624951735 11.241166729397754 79.58446244329971
lradius 20.38317978155375
lwrist 2.1178049222543827
lhand -28.95198276825309 20.516993429569716
lfingers 7.125020000000057
lthumb -2.304865384596929 50.496921229015314
rclavicle -8.381075490862648e-16 -7.146561984180887e-16
rhumerus -25.14418980405725 -16.227355626364535 -79.51213159245859
rradius 31.099155332898523
rwrist 2.5422974577333886
rhand -17.185050548078156 29.842606829462838
rfingers 7.125020000000057
rthumb 9.057416233107524 -7.001236076622491
23
root 0.5277521038569524 17.839335304426562 18.588337248046777 -3.821891494909524 -3.7934081982838257 -2.553582452693109
lfemur -18.845065718813796 -3.246636315586652 -19.586233617737243
ltibia 26.077422464242694
lfoot -6.433911737920693 -1.21052060761141
ltoes -2.554524140258553
rfemur -2.239940424856732 1.0872982269116642 26.397313360099684
rtibia 73.4530958022844
rfoot 10.16066971605826 -3.4245074941637816
rtoes 15.301184896364587
lowerback 10.39738383438911 2.079171112261764 2.698280028258451
upperback 0.12686024853934053 3.174609548549962 0.9242492512741415
thorax -5.5780910118597635 1.4874869548081238 -1.0367476343400348
lowerneck -16.046597132000112 -3.160416824176453 -1.5779857400906412
upperneck 21.589926537634078 -4.165339861556907 0.7789913034124929
head 9.52901266318393 -1.9952243757005894 -0.021099099800499344
lclavicle -8.421617708799768e-16 -7.182224483667908e-16
lhumerus -39.704437151149115 11.350601271587905 79.7723167216414
lradius 19.840406101121843
lwrist 2.921357673133725
lhand -28.79712616463555 20.628436985121354
lfingers 7.125020000000057
lthumb -2.1553081287614115 50.60244692838823
rclavicle -8.421617708799771e-16 -7.182224483667909e-16
rhumerus -24.545821070897063 -16.537263600681573 -79.90040305268023
rradius 30.507273545514682
rwrist 3.162254859271205
rhand -17.366627694486844 29.28685900528466
rfingers 7.125020000000057
rthumb 8.882081431538094 -6.625968114983582
24
root 0.496304308173609 18.055748779533644 20.262343085908036 -4.429140604449592 -2.9895020003533848 -0.646535753452909
lfemur -14.381527484355829 -3.0825357708496544 -23.226144723929373
ltibia 30.134812759281537
lfoot -5.053296110001133 -3.6884479500148606
ltoes 0.2867169358954289
rfemur -10.454654436046141 -1.0240051031296837 23.914507185075543
rtibia 82.97470827487476
rfoot 14.813037932297979 -4.684341960051364
rtoes 17.20914232290891
lowerback 10.820021594657774 1.556401040105392 1.0463805225985576
upperback 0.09197715837394377 2.3097634914478156 0.7016892459775229
thorax -5.922412903654372 1.0959792368162913 -0.19620688981908552
lowerneck -15.913542067791376 -3.1047650702392673 -1.7419046065301707
upperneck 21.7221955534447 -4.068298329373164 0.8949505250446459
head 9.549064569382825 -1.948643438487493 0.06893005374653022
lclavicle -7.183299490066347e-16 -6.219242575239472e-16
lhumerus -39.86515121011413 9.050750117539236 80.89968200852253
lradius 26.408368990658666
lwrist 5.747003125216656
lhand -28.415914762071697 19.699502528574317
lfingers 7.125020000000058
lthumb -1.7871919426855563 49.65783131992136
rclavicle -7.18329949006635e-16 -6.219242575239473e-16
rhumerus -28.28172667247451 -16.841296321167952 -80.28262631299553
rradius 35.18685772025893
rwrist 3.29405262350197
rhand -17.297378677276978 27.99071847163988
rfingers 7.125020000000058
rthumb 8.948731977907482 -5.784987272438994
